<?xml version="1.0" encoding="UTF-8"?>
<svg id="Layer_1" xmlns="http://www.w3.org/2000/svg" version="1.1" viewBox="0 0 64 64">
  <!-- Generator: Adobe Illustrator 29.5.0, SVG Export Plug-In . SVG Version: 2.1.0 Build 137)  -->
  <defs>
    <style>
      .st0 {
        fill: #1c1c1d;
      }

      .st1 {
        fill: teal;
      }
    </style>
  </defs>
  <rect class="st0" y="0" width="64" height="64" rx="5.95" ry="5.95"/>
  <path class="st1" d="M15.57,47.93h0c-.96-.96-.96-2.52,0-3.48l12.65-12.65s.02-.05,0-.07l-10.11-10.11s-.08,0-.08.03v11.4c0,1.36-1.1,2.46-2.46,2.46h0c-1.36,0-2.46-1.1-2.46-2.46v-13.64c0-1.64.98-3.11,2.5-3.74,1.52-.63,3.25-.28,4.41.88l11.68,11.68s.05.02.07,0l11.68-11.68c1.28-1.29,3.27-1.57,4.89-.64,1.29.74,2.02,2.17,2.02,3.65,0,4.6,0,19.79,0,24.38,0,1.48-.73,2.91-2.02,3.65-1.62.93-3.6.65-4.89-.64l-11.68-11.68s-.05-.02-.07,0l-12.65,12.65c-.96.96-2.52.96-3.48,0ZM35.25,31.8l10.11,10.11s.08,0,.08-.03v-20.21s-.05-.06-.08-.03l-10.11,10.11s-.02.05,0,.07Z"/>
</svg>