<?xml version="1.0" encoding="UTF-8"?>
<svg id="a" data-name="Layer 1" xmlns="http://www.w3.org/2000/svg" viewBox="0 0 150 35">
  <defs>
    <style>
      .b {
        fill: #fff;
      }

      .c {
        fill: #ed1c24;
      }
    </style>
  </defs>
  <rect class="b" x="50.92" y="10.07" width="85.76" height="15.62"/>
  <g>
    <path class="b" d="M8.61,17.51c-.36-.23-.76-.42-1.19-.55-.44-.14-.87-.25-1.31-.35-.44-.09-.84-.18-1.2-.27-.36-.09-.66-.2-.88-.34-.22-.14-.33-.33-.33-.56,0-.18.06-.35.17-.49.11-.14.3-.26.55-.35.26-.09.6-.13,1.02-.13.47,0,.96.07,1.46.21.5.14,1.01.35,1.52.62l.94-2.26c-.53-.31-1.14-.54-1.82-.7-.68-.16-1.38-.24-2.09-.24-1.06,0-1.94.16-2.65.48-.71.32-1.24.74-1.59,1.26-.35.52-.53,1.11-.53,1.76,0,.57.11,1.05.34,1.42.23.38.52.68.88.91s.76.42,1.19.56c.44.14.87.26,1.31.35.44.09.83.18,1.19.28.36.09.65.21.88.35.23.14.34.34.34.58,0,.17-.06.33-.18.45-.12.13-.31.23-.56.31-.26.08-.6.12-1.02.12-.63,0-1.26-.1-1.89-.3-.63-.2-1.19-.45-1.67-.76l-1,2.25c.51.35,1.18.63,1.99.85s1.67.33,2.55.33c1.07,0,1.95-.16,2.66-.48.7-.32,1.23-.74,1.59-1.27.35-.53.53-1.11.53-1.73,0-.56-.11-1.03-.33-1.41-.22-.37-.51-.68-.87-.91Z"/>
    <polygon class="b" points="20.41 19.84 18.69 14.74 16.19 14.74 14.42 19.8 12.71 14.74 9.94 14.74 12.91 23.09 15.74 23.09 17.37 18.54 18.95 23.09 21.78 23.09 24.75 14.74 22.18 14.74 20.41 19.84"/>
    <path class="b" d="M28.88,14.61c-.66,0-1.32.08-1.98.25-.66.17-1.23.41-1.7.72l.99,1.99c.29-.23.64-.4,1.05-.53.41-.13.82-.19,1.22-.19.62,0,1.06.13,1.35.38.25.23.38.55.4.95h-1.64c-.86,0-1.57.1-2.11.3-.54.2-.95.49-1.21.86-.26.38-.39.82-.39,1.33,0,.48.12.92.36,1.31.24.39.59.7,1.05.92.46.23,1.03.34,1.69.34.73,0,1.32-.15,1.76-.44.32-.21.53-.51.7-.86v1.16h2.73v-4.63c0-1.32-.37-2.3-1.12-2.92-.74-.62-1.79-.93-3.15-.93ZM29.64,21.14c-.26.16-.55.24-.87.24-.34,0-.61-.08-.8-.23-.2-.15-.29-.36-.29-.62s.1-.46.29-.62c.19-.15.52-.23.99-.23h1.26v.72c-.12.33-.32.57-.58.73Z"/>
    <path class="b" d="M36.46,13.82c.54,0,.98-.15,1.3-.45.32-.3.49-.68.49-1.15s-.16-.8-.49-1.09c-.33-.28-.76-.42-1.29-.42s-.96.15-1.29.45c-.33.3-.49.67-.49,1.11s.16.81.49,1.11c.33.3.76.45,1.29.45Z"/>
    <rect class="b" x="34.99" y="14.74" width="2.93" height="8.35"/>
  </g>
  <g>
    <path class="c" d="M101,17.38c-.24-.14-.51-.21-.82-.21s-.57.07-.81.21c-.24.14-.43.35-.58.61-.15.27-.22.59-.22.98s.07.72.22.99c.15.28.34.49.58.63.24.14.51.21.81.21s.58-.07.82-.21c.24-.14.43-.35.57-.63.14-.28.21-.61.21-.99s-.07-.71-.21-.98c-.14-.27-.33-.47-.57-.61Z"/>
    <path class="c" d="M57.34,17.16c-.24-.14-.52-.21-.84-.21s-.6.07-.84.21c-.24.14-.43.34-.56.6-.08.15-.12.32-.16.5h3.11c-.03-.18-.08-.36-.16-.51-.14-.25-.32-.45-.56-.59Z"/>
    <path class="c" d="M70.8,17.16c-.24-.14-.52-.21-.84-.21s-.6.07-.84.21c-.24.14-.43.34-.56.6-.08.15-.12.32-.16.5h3.11c-.03-.18-.08-.36-.16-.51-.14-.25-.32-.45-.56-.59Z"/>
    <path class="c" d="M143.7,1.01L59.42.47c-2.09-.01-4.04,1.04-5.08,2.76l-14.03,23.01c-2.25,3.68.56,8.29,5.05,8.29h83.92c2.04,0,3.92-1.01,4.98-2.66l14.4-22.47c2.35-3.67-.41-8.36-4.94-8.39ZM60.56,19.33c0,.12-.02.24-.03.34h-5.54c.04.13.08.26.15.38.15.27.38.48.67.63.29.15.64.22,1.04.22.38,0,.7-.05.97-.16.27-.11.53-.27.8-.5l1.41,1.47c-.37.4-.82.71-1.35.92-.54.21-1.17.32-1.9.32-.9,0-1.69-.17-2.36-.51-.67-.34-1.19-.81-1.56-1.41-.37-.6-.56-1.28-.56-2.04s.18-1.44.54-2.04c.36-.6.86-1.06,1.5-1.4.64-.33,1.36-.5,2.16-.5.75,0,1.44.15,2.06.46.62.31,1.11.75,1.48,1.35.37.59.55,1.31.55,2.16,0,.09,0,.2-.01.32ZM64.49,22.81h-2.68v-10.46h2.68v10.46ZM74.02,19.33c0,.12-.02.24-.03.34h-5.54c.04.13.08.26.15.38.16.27.38.48.67.63.29.15.64.22,1.04.22.38,0,.7-.05.97-.16.27-.11.53-.27.8-.5l1.41,1.47c-.37.4-.82.71-1.35.92-.54.21-1.17.32-1.9.32-.9,0-1.69-.17-2.36-.51-.67-.34-1.19-.81-1.56-1.41-.37-.6-.56-1.28-.56-2.04s.18-1.44.54-2.04c.36-.6.86-1.06,1.5-1.4.64-.33,1.36-.5,2.16-.5.75,0,1.44.15,2.06.46s1.11.75,1.48,1.35c.37.59.55,1.31.55,2.16,0,.09,0,.2-.01.32ZM77.71,19.97c.15.27.35.48.6.62.25.14.54.21.85.21s.6-.08.86-.25c.26-.16.48-.42.66-.78l2.07,1.06c-.26.67-.71,1.18-1.34,1.55-.63.37-1.38.55-2.24.55s-1.6-.17-2.26-.51c-.66-.34-1.18-.81-1.56-1.4-.38-.6-.56-1.28-.56-2.05s.19-1.45.56-2.04c.38-.59.9-1.05,1.56-1.39.66-.33,1.42-.5,2.26-.5s1.61.18,2.24.55c.63.37,1.08.88,1.34,1.55l-2.07,1.06c-.18-.36-.4-.62-.66-.78-.26-.16-.55-.25-.86-.25s-.59.07-.85.21c-.25.14-.45.35-.6.61-.15.27-.22.59-.22.98s.07.73.22,1ZM88.33,22.83c-.33.07-.67.11-1.03.11-.98,0-1.74-.24-2.28-.73-.54-.48-.82-1.21-.82-2.19v-2.86h-1.11v-1.99h1.11v-1.71h2.68v1.71h1.75v1.99h-1.75v2.83c0,.27.08.49.23.64.15.16.34.23.58.23.32,0,.59-.08.82-.24l.66,1.87c-.23.15-.5.26-.83.33ZM95.31,17.45c-.12-.02-.23-.03-.32-.04-.09,0-.19,0-.29,0-.54,0-.99.15-1.32.44-.34.3-.51.78-.51,1.44v3.51h-2.68v-7.64h2.55v.95c.2-.26.43-.48.72-.64.51-.29,1.12-.43,1.85-.43v2.41ZM103.94,21.02c-.37.6-.88,1.06-1.53,1.4-.65.34-1.4.51-2.23.51s-1.58-.17-2.23-.51c-.65-.34-1.16-.81-1.53-1.4-.37-.6-.56-1.28-.56-2.05s.19-1.45.56-2.04c.37-.59.88-1.05,1.53-1.39.65-.33,1.39-.5,2.23-.5s1.58.17,2.23.5c.65.33,1.16.8,1.53,1.39.37.59.55,1.27.55,2.04s-.18,1.45-.55,2.05ZM113.86,22.81h-2.68v-3.93c0-.54-.11-.94-.33-1.19-.22-.25-.53-.37-.92-.37-.28,0-.54.06-.78.19-.24.13-.42.32-.55.58s-.2.61-.2,1.03v3.69h-2.68v-7.64h2.55v.84c.21-.22.44-.41.7-.55.51-.28,1.08-.42,1.72-.42.59,0,1.13.12,1.61.36.48.24.86.61,1.13,1.11.28.5.42,1.14.42,1.93v4.37ZM118.21,22.81h-2.68v-7.64h2.68v7.64ZM118.06,13.91c-.3.28-.69.42-1.19.42s-.88-.14-1.18-.41c-.3-.27-.45-.61-.45-1.01s.15-.74.45-1.01c.3-.27.7-.41,1.18-.41s.88.13,1.18.39c.3.26.45.59.45.99s-.15.77-.44,1.05ZM122.39,19.97c.15.27.35.48.6.62.25.14.54.21.85.21s.6-.08.86-.25c.26-.16.48-.42.66-.78l2.07,1.06c-.26.67-.71,1.18-1.34,1.55-.63.37-1.38.55-2.24.55s-1.6-.17-2.26-.51c-.66-.34-1.18-.81-1.56-1.4-.38-.6-.56-1.28-.56-2.05s.19-1.45.56-2.04c.38-.59.9-1.05,1.56-1.39.66-.33,1.42-.5,2.26-.5s1.61.18,2.24.55c.63.37,1.08.88,1.34,1.55l-2.07,1.06c-.18-.36-.4-.62-.66-.78-.26-.16-.55-.25-.86-.25s-.59.07-.85.21-.45.35-.6.61c-.15.27-.22.59-.22.98s.07.73.22,1ZM134.57,21.69c-.29.38-.71.68-1.27.9-.56.23-1.25.34-2.08.34-.65,0-1.28-.08-1.9-.23-.62-.15-1.11-.34-1.49-.56l.8-1.83c.36.22.78.39,1.25.51.48.13.95.19,1.41.19s.76-.05.94-.14c.17-.09.26-.22.26-.38,0-.15-.08-.26-.25-.33-.16-.07-.38-.12-.65-.16-.27-.04-.56-.08-.88-.13s-.64-.11-.96-.19c-.32-.08-.62-.2-.89-.37-.27-.16-.48-.39-.64-.67-.16-.28-.24-.64-.24-1.07,0-.49.14-.92.43-1.3.29-.38.71-.68,1.26-.9.55-.22,1.23-.33,2.03-.33.54,0,1.08.05,1.63.16.55.11,1.01.27,1.39.49l-.8,1.82c-.38-.22-.75-.36-1.13-.44-.38-.08-.73-.12-1.07-.12-.45,0-.77.05-.95.15-.18.1-.27.23-.27.38s.08.27.24.35c.16.08.37.14.64.18.27.04.56.08.88.13.32.04.64.11.97.19.32.08.62.21.89.37.27.16.48.38.64.66.16.28.24.63.24,1.06,0,.47-.14.89-.43,1.27Z"/>
  </g>
</svg>