<?xml version="1.0" encoding="UTF-8"?>
<svg id="a" data-name="Layer 1" xmlns="http://www.w3.org/2000/svg" viewBox="0 0 32 32">
  <path d="M22.14.6c-4.04-.13-8.61-.13-12.65.03C2.79.9.81,3.18.58,9.81c-.14,4.16-.1,8.77.09,12.92.29,6.4,2.22,8.33,8.63,8.63,4.38.2,9.03.2,13.41,0,6.33-.29,8.32-2.18,8.63-8.54.21-4.38.21-9.2,0-13.58-.32-6.66-2.65-8.42-9.2-8.63ZM22.81,22.91c-5,4.97-13.59,2.96-15.91-3.66-2.78-7.9,5.09-15.34,12.83-12.16,6.35,2.6,7.95,10.98,3.08,15.82ZM26.99,8.03c-3.28,1.35-4.53-3.93-1.16-4.33,2.5-.29,3.5,3.37,1.16,4.33Z" style="fill: #010101;"/>
  <path d="M15.16,9.79c-3.84.43-6.29,4.52-5.13,8.16,1.64,5.13,8.74,5.89,11.41,1.2,2.61-4.58-1.09-9.95-6.28-9.37Z" style="fill: #010101;"/>
</svg>