<?xml version="1.0" encoding="UTF-8"?>
<svg id="a" data-name="Layer 1" xmlns="http://www.w3.org/2000/svg" viewBox="0 0 32 32">
  <path d="M27,.5l-22.11.02C2.6.84.78,2.71.5,5v21.99c.31,2.37,2.19,4.24,4.57,4.5h21.87c2.4-.26,4.3-2.17,4.57-4.57V5.06c-.25-2.38-2.14-4.26-4.5-4.56ZM26.13,17.43c-1.14,6.86-8.81,10.52-14.9,7.19l-5.45,1.73c.47-1.79,1.14-3.54,1.68-5.31-3.39-5.75-.51-13.25,5.95-15.04,7.16-1.98,13.93,4.12,12.72,11.43Z" style="fill: #06060a;"/>
  <path d="M7.81,16.64c.14,1.44.72,2.71,1.42,3.92l-.88,3.22,3.08-1.02c7.07,4.5,15.88-2.64,12.45-10.49C20.15,3.74,6.89,6.94,7.81,16.64ZM20.71,19.99c-1.86,1.82-5.73-.51-7.19-1.99-.89-.9-2.37-3-2.4-4.27-.02-.78.47-2.19,1.3-2.43.24-.07.83-.1,1.03.03.27.17.98,2.07,1.19,2.47,0,.47-.93,1.13-.87,1.53.06.38,1.12,1.52,1.44,1.81.35.31,1.67,1.21,2.1,1.21.45,0,.96-1.42,1.54-1.34.58.36,1.69.65,2.18,1.07.57.48.11,1.47-.34,1.9Z" style="fill: #010101;"/>
</svg>